<svg xmlns="http://www.w3.org/2000/svg" viewBox="0 0 100 100">
  <!-- Top half: blue base -->
  <path d="M 2,50 A 48,48 0 0 1 98,50 Z" fill="#1840C8"/>
  <!-- Red band (r 28–42) -->
  <path d="M 8,50 A 42,42 0 0 1 92,50 L 78,50 A 28,28 0 0 0 22,50 Z" fill="#CC1010"/>
  <!-- White separators -->
  <path d="M 8,50 A 42,42 0 0 1 92,50 L 90,50 A 40,40 0 0 0 10,50 Z" fill="#ffffff"/>
  <path d="M 24,50 A 26,26 0 0 1 76,50 L 78,50 A 28,28 0 0 0 22,50 Z" fill="#ffffff"/>
  <!-- Bottom half -->
  <path d="M 98,50 A 48,48 0 0 1 2,50 Z" fill="#ffffff"/>
  <circle cx="50" cy="50" r="48" fill="none" stroke="#181818" stroke-width="4"/>
  <line x1="2" y1="50" x2="98" y2="50" stroke="#181818" stroke-width="4"/>
  <circle cx="50" cy="50" r="11" fill="#181818"/>
  <circle cx="50" cy="50" r="7" fill="#ffffff"/>
</svg>
