<svg xmlns="http://www.w3.org/2000/svg" viewBox="0 0 100 100">
  <!-- Top half: black base -->
  <path d="M 2,50 A 48,48 0 0 1 98,50 Z" fill="#181818"/>
  <!-- Gold arc band (r 34–42) -->
  <path d="M 8,50 A 42,42 0 0 1 92,50 L 84,50 A 34,34 0 0 0 16,50 Z" fill="#C88010"/>
  <!-- Thin gold outer ring (r 44–48) -->
  <path d="M 2,50 A 48,48 0 0 1 98,50 L 94,50 A 44,44 0 0 0 6,50 Z" fill="#C88010"/>
  <!-- Bottom half -->
  <path d="M 98,50 A 48,48 0 0 1 2,50 Z" fill="#ffffff"/>
  <circle cx="50" cy="50" r="48" fill="none" stroke="#181818" stroke-width="4"/>
  <line x1="2" y1="50" x2="98" y2="50" stroke="#C88010" stroke-width="4"/>
  <!-- Gold-ringed button -->
  <circle cx="50" cy="50" r="11" fill="#C88010"/>
  <circle cx="50" cy="50" r="7"  fill="#181818"/>
  <circle cx="50" cy="50" r="3"  fill="#C88010"/>
</svg>
