<svg xmlns="http://www.w3.org/2000/svg" viewBox="0 0 100 100">
  <!-- Top half: yellow-green base -->
  <path d="M 2,50 A 48,48 0 0 1 98,50 Z" fill="#80B418"/>
  <!-- Dark green arc bands (r 20–30 and r 38–46) -->
  <path d="M 4,50 A 46,46 0 0 1 96,50 L 88,50 A 38,38 0 0 0 12,50 Z" fill="#4A7808"/>
  <path d="M 20,50 A 30,30 0 0 1 80,50 L 70,50 A 20,20 0 0 0 30,50 Z" fill="#4A7808"/>
  <!-- Bottom half -->
  <path d="M 98,50 A 48,48 0 0 1 2,50 Z" fill="#ffffff"/>
  <circle cx="50" cy="50" r="48" fill="none" stroke="#181818" stroke-width="4"/>
  <line x1="2" y1="50" x2="98" y2="50" stroke="#181818" stroke-width="4"/>
  <circle cx="50" cy="50" r="11" fill="#181818"/>
  <circle cx="50" cy="50" r="7"  fill="#ffffff"/>
</svg>
