<svg xmlns="http://www.w3.org/2000/svg" viewBox="0 0 100 100">
  <!-- Top half: near-white base -->
  <path d="M 2,50 A 48,48 0 0 1 98,50 Z" fill="#F0F0F0"/>
  <!-- Red arc bands (r 16–22 and r 36–42) -->
  <path d="M 8,50 A 42,42 0 0 1 92,50 L 86,50 A 36,36 0 0 0 14,50 Z" fill="#CC1010"/>
  <path d="M 28,50 A 22,22 0 0 1 72,50 L 66,50 A 16,16 0 0 0 34,50 Z" fill="#CC1010"/>
  <!-- Bottom half -->
  <path d="M 98,50 A 48,48 0 0 1 2,50 Z" fill="#ffffff"/>
  <circle cx="50" cy="50" r="48" fill="none" stroke="#181818" stroke-width="4"/>
  <line x1="2" y1="50" x2="98" y2="50" stroke="#181818" stroke-width="4"/>
  <circle cx="50" cy="50" r="11" fill="#181818"/>
  <circle cx="50" cy="50" r="7"  fill="#ffffff"/>
</svg>
